<svg width="53" height="50" viewBox="0 0 53 50" fill="none" xmlns="http://www.w3.org/2000/svg">
<path d="M20.8426 21.5625L12.7747 21.5625L12.7747 49.3231L11.8188 49.3231L11.8188 21.5625L5.6589 21.5625L5.6589 17.1749L0.125128 17.1749L0.125131 3.64397e-06L17.3 6.64692e-06L17.3 6.37785L20.8436 6.37785L20.8436 12.0196L52.7471 12.0196L52.7471 12.9756L20.8426 12.9756L20.8426 21.5625ZM6.61481 20.6066L11.8188 20.6066L11.8188 17.1749L6.61481 17.1749L6.61481 20.6066ZM16.3431 12.9756L12.7747 12.9756L12.7747 16.219L16.3431 16.219L16.3431 12.9756ZM16.3431 7.33376L6.61481 7.33376L6.61481 16.219L11.8188 16.219L11.8188 12.0196L16.3431 12.0196L16.3431 7.33376ZM16.3431 0.955918L1.08104 0.955915L1.08104 16.219L5.6589 16.219L5.6589 6.37785L16.3441 6.37785L16.3431 0.955918ZM19.8867 7.33376L17.299 7.33376L17.299 12.0196L19.8867 12.0196L19.8867 7.33376ZM17.299 12.9756L17.299 17.1749L12.7747 17.1749L12.7747 20.6066L19.8867 20.6066L19.8867 12.9765L17.299 12.9756Z" fill="#FFDC98" fill-opacity="0.8"/>
<path d="M15.4455 49.3231L14.4896 49.3231L14.4896 23.1828L15.4455 23.1828L15.4455 49.3231Z" fill="#FFDC98" fill-opacity="0.8"/>
<path d="M52.7471 17.1749L22.8242 17.1749L22.8242 16.219L52.7471 16.219L52.7471 17.1749Z" fill="#FFDC98" fill-opacity="0.8"/>
</svg>
