<svg width="54" height="50" viewBox="0 0 54 50" fill="none" xmlns="http://www.w3.org/2000/svg">
<path d="M32.7643 27.7606H40.8322V0H41.7881V27.7606H47.948V32.1483H53.4818V49.3231H36.307V42.9453H32.7634V37.3035H0.859844V36.3476H32.7643V27.7606ZM46.9921 28.7165H41.7881V32.1483H46.9921V28.7165ZM37.2638 36.3476H40.8322V33.1042H37.2638V36.3476ZM37.2638 41.9894H46.9921V33.1042H41.7881V37.3035H37.2638V41.9894ZM37.2638 48.3672H52.5259V33.1042H47.948V42.9453H37.2629L37.2638 48.3672ZM33.7203 41.9894H36.3079V37.3035H33.7203V41.9894ZM36.3079 36.3476V32.1483H40.8322V28.7165H33.7203V36.3466L36.3079 36.3476Z" fill="#FFDC98" fill-opacity="0.8"/>
<path d="M38.1614 0H39.1173V26.1404H38.1614V0Z" fill="#FFDC98" fill-opacity="0.8"/>
<path d="M0.859821 32.1483H30.7827V33.1042H0.859821V32.1483Z" fill="#FFDC98" fill-opacity="0.8"/>
</svg>
